<?xml version="1.0" standalone="no"?>
<!DOCTYPE svg PUBLIC "-//W3C//DTD SVG 1.1//EN" "http://www.w3.org/Graphics/SVG/1.1/DTD/svg11.dtd" >
<svg xmlns="http://www.w3.org/2000/svg">
<metadata></metadata>
<defs>
<font id="ristretto_pro_rgregular" horiz-adv-x="657" >
<font-face units-per-em="2048" ascent="1536" descent="-512" />
<missing-glyph horiz-adv-x="317" />
<glyph horiz-adv-x="2048" />
<glyph horiz-adv-x="2048" />
<glyph unicode="&#xd;" horiz-adv-x="2048" />
<glyph unicode=" "  horiz-adv-x="317" />
<glyph unicode="&#x09;" horiz-adv-x="317" />
<glyph unicode="&#xa0;" horiz-adv-x="317" />
<glyph unicode="!" horiz-adv-x="309" d="M96 0v190h117v-190h-117zM96 377v1057h117v-1057h-117z" />
<glyph unicode="&#x22;" horiz-adv-x="503" d="M92 1126v359h94v-359h-94zM315 1126v359h95v-359h-95z" />
<glyph unicode="#" horiz-adv-x="743" d="M76 307v99h88v622h-88v98h88v308h117v-308h196v308h117v-308h86v-98h-86v-622h86v-99h-86v-307h-117v307h-196v-307h-117v307h-88zM281 406h196v622h-196v-622z" />
<glyph unicode="$" d="M80 225v185h117v-185q0 -62 37.5 -98.5t93.5 -36.5q57 0 95 36t38 99v230q0 46 -21 79.5t-54.5 54t-73.5 38.5t-80.5 39t-74 49t-54.5 76t-21 112v205q0 94 54 153.5t140 71.5v203h103v-203q87 -12 141.5 -71.5t54.5 -153.5v-186h-116v186q0 61 -37.5 97t-93.5 36 t-92.5 -36t-36.5 -97v-205q0 -47 21 -81t54.5 -54.5t73.5 -38t80.5 -39t74 -49t54.5 -75t21 -111.5v-230q0 -95 -55.5 -155.5t-143.5 -71.5v-203h-103v203q-86 11 -141 71.5t-55 155.5z" />
<glyph unicode="%" horiz-adv-x="1026" d="M92 997v256q0 87 53 138t134 51t135.5 -51t54.5 -138v-256q0 -87 -54.5 -136.5t-135.5 -49.5t-134 49.5t-53 136.5zM176 997q0 -51 29 -79.5t74 -28.5t75.5 29t30.5 79v256q0 51 -30.5 81t-75.5 30q-44 0 -73.5 -30t-29.5 -81v-256zM182 0l568 1434h94l-568 -1434h-94z M557 178v256q0 87 53 138t135 51q80 0 134.5 -51.5t54.5 -137.5v-256q0 -87 -55 -136.5t-134 -49.5q-82 0 -135 49.5t-53 136.5zM641 178q0 -51 29.5 -79.5t74.5 -28.5q44 0 75.5 29t31.5 79v256q0 50 -31.5 80.5t-75.5 30.5t-74 -30t-30 -81v-256z" />
<glyph unicode="&#x26;" d="M80 225v273q0 73 33.5 126.5t91.5 80.5q-125 58 -125 208v242q0 109 70.5 172.5t177.5 63.5t178.5 -63.5t71.5 -172.5v-131h-117v131q0 63 -38 100t-95 37q-56 0 -93.5 -37t-37.5 -100v-266q0 -62 37.5 -98.5t93.5 -36.5h133v84h117v-613q0 -109 -71.5 -171t-178.5 -62 t-177.5 62t-70.5 171zM197 225q0 -62 37.5 -98.5t93.5 -36.5q57 0 95 36t38 99v430h-133q-56 0 -93.5 -37t-37.5 -100v-293z" />
<glyph unicode="'" horiz-adv-x="278" d="M92 1126v359h94v-359h-94z" />
<glyph unicode="(" horiz-adv-x="395" d="M80 20v1289q0 109 70.5 172t177.5 63h20v-98h-20q-56 0 -93.5 -37t-37.5 -100v-1289q0 -62 37.5 -98.5t93.5 -36.5h20v-98h-20q-107 0 -177.5 62t-70.5 171z" />
<glyph unicode=")" horiz-adv-x="395" d="M47 -115h21q56 0 93.5 37.5t37.5 100.5v1288q0 62 -37.5 98.5t-93.5 36.5h-21v98h21q107 0 177 -62t70 -171v-1288q0 -109 -70.5 -172.5t-176.5 -63.5h-21v98z" />
<glyph unicode="*" horiz-adv-x="692" d="M63 1122v99h195l-98 172l86 49l98 -174l98 174l86 -49l-100 -172h201v-99h-201l98 -170l-84 -49l-98 170l-98 -170l-84 49l98 170h-197z" />
<glyph unicode="+" horiz-adv-x="692" d="M63 588v98h232v244h98v-244h236v-98h-236v-244h-98v244h-232z" />
<glyph unicode="," horiz-adv-x="299" d="M35 -250q6 15 15.5 40.5t25.5 91.5t16 118v190h113v-190q0 -52 -18 -114.5t-36 -99.5l-18 -36h-98z" />
<glyph unicode="-" horiz-adv-x="442" d="M63 514v96h318v-96h-318z" />
<glyph unicode="." horiz-adv-x="299" d="M92 0v190h113v-190h-113z" />
<glyph unicode="/" horiz-adv-x="606" d="M63 -205l363 1733h117l-363 -1733h-117z" />
<glyph unicode="0" d="M80 225v930q0 109 70.5 172.5t177.5 63.5t178.5 -63.5t71.5 -172.5v-930q0 -109 -71.5 -171t-178.5 -62t-177.5 62t-70.5 171zM197 225q0 -62 37.5 -98.5t93.5 -36.5q57 0 95 36t38 99v930q0 63 -38 100t-95 37q-56 0 -93.5 -37t-37.5 -100v-930z" />
<glyph unicode="1" horiz-adv-x="450" d="M47 1155v113l191 114h116v-1382h-116v1270z" />
<glyph unicode="2" horiz-adv-x="649" d="M76 1012v151q0 105 69.5 166.5t173.5 61.5q107 0 178.5 -63.5t71.5 -172.5v-305q0 -63 -20.5 -117t-53 -93t-72 -74t-79 -68t-72 -67t-53 -77.5t-20.5 -93.5v-162h370v-98h-487v260q0 63 20.5 117t53 93t72 74.5t79.5 68.5t72.5 67t53 77.5t20.5 92.5v305q0 63 -38.5 100 t-95.5 37q-54 0 -90 -34.5t-36 -94.5v-151h-117z" />
<glyph unicode="3" horiz-adv-x="649" d="M76 1012v151q0 105 69.5 166.5t173.5 61.5q107 0 178.5 -63.5t71.5 -172.5v-221q0 -77 -38 -132t-103 -79q67 -24 106 -79.5t39 -135.5v-281q0 -109 -71 -172t-178 -63q-104 0 -174 62t-70 167v150h117v-150q0 -60 36.5 -95.5t90.5 -35.5q57 0 95 37t38 100v310 q0 63 -38 99t-95 36h-101v98h96q58 0 96 36t38 99v250q0 63 -38.5 100t-95.5 37q-54 0 -90 -34.5t-36 -94.5v-151h-117z" />
<glyph unicode="4" horiz-adv-x="645" d="M47 274v99l320 1009h178v-1009h53v-99h-53v-274h-113v274h-385zM156 373h276v878h-4z" />
<glyph unicode="5" d="M80 225v146h117v-146q0 -62 37.5 -98.5t93.5 -36.5q57 0 95 36t38 99v459q0 48 -29 76t-72 28q-66 0 -114.5 -45.5t-48.5 -99.5h-117v739h487v-98h-370v-512q76 115 211 115q72 0 121 -47.5t49 -128.5v-486q0 -109 -71.5 -171t-178.5 -62t-177.5 62t-70.5 171z" />
<glyph unicode="6" d="M80 225v930q0 109 71.5 172.5t178.5 63.5q103 0 173 -62.5t70 -167.5v-149h-116v149q0 60 -36.5 95.5t-90.5 35.5q-57 0 -95 -37t-38 -100v-434q76 115 211 115q72 0 121 -48t49 -129v-434q0 -109 -71.5 -171t-178.5 -62t-177.5 62t-70.5 171zM197 225q0 -62 37.5 -98.5 t93.5 -36.5q57 0 95 36t38 99v408q0 48 -29 76t-72 28q-69 0 -116 -47t-47 -125v-340z" />
<glyph unicode="7" horiz-adv-x="614" d="M63 1284v98h488v-63l-272 -1319h-121l268 1284h-363z" />
<glyph unicode="8" d="M80 225v273q0 73 33.5 126.5t91.5 80.5q-125 58 -125 208v242q0 109 70.5 172.5t177.5 63.5t178.5 -63.5t71.5 -172.5v-242q0 -74 -34 -127.5t-93 -80.5q59 -27 93 -80.5t34 -126.5v-273q0 -109 -71.5 -171t-178.5 -62t-177.5 62t-70.5 171zM197 225q0 -62 37.5 -98.5 t93.5 -36.5q57 0 95 36t38 99v293q0 63 -38 100t-95 37q-56 0 -93.5 -37t-37.5 -100v-293zM197 889q0 -62 37.5 -98.5t93.5 -36.5q57 0 95 36t38 99v266q0 63 -38 100t-95 37q-56 0 -93.5 -37t-37.5 -100v-266z" />
<glyph unicode="9" d="M80 223v148h117v-148q0 -61 36.5 -97t92.5 -36q57 0 96 38t39 101v430q-35 -54 -90 -83t-119 -29q-73 0 -122.5 46.5t-49.5 127.5v436q0 109 71.5 171.5t178.5 62.5t177.5 -62.5t70.5 -171.5v-928q0 -109 -72 -173t-180 -64q-105 0 -175.5 62t-70.5 169zM197 748 q0 -48 28.5 -75.5t71.5 -27.5q71 0 117.5 46t46.5 124v342q0 63 -37 99t-94 36t-95 -36t-38 -99v-409z" />
<glyph unicode=":" horiz-adv-x="299" d="M92 0v190h113v-190h-113zM92 831v193h113v-193h-113z" />
<glyph unicode=";" horiz-adv-x="299" d="M35 -250q6 15 15.5 40.5t25.5 91.5t16 118v190h113v-190q0 -52 -18 -114.5t-36 -99.5l-18 -36h-98zM92 831v193h113v-193h-113z" />
<glyph unicode="&#x3c;" horiz-adv-x="837" d="M92 537v153l653 213v-121l-546 -166v-4l546 -168v-120z" />
<glyph unicode="=" horiz-adv-x="692" d="M63 410v98h566v-98h-566zM63 721v98h566v-98h-566z" />
<glyph unicode="&#x3e;" horiz-adv-x="837" d="M92 326v120l547 166v4l-547 168v121l653 -213v-153z" />
<glyph unicode="?" horiz-adv-x="649" d="M76 1063v151q0 105 69.5 166.5t173.5 61.5q107 0 178.5 -63.5t71.5 -172.5v-213q0 -69 -14 -118.5t-35.5 -74t-46.5 -48.5t-46.5 -44.5t-35.5 -61t-14 -97.5v-172h-117v172q0 60 10.5 104t27.5 70t37.5 46t41.5 38.5t38 40.5t27.5 58.5t10.5 86.5v213q0 63 -38.5 100 t-95.5 37q-54 0 -90 -34.5t-36 -94.5v-151h-117zM260 0v190h117v-190h-117z" />
<glyph unicode="@" horiz-adv-x="1447" d="M92 205v612q0 145 49.5 264.5t135 197.5t199.5 120.5t245 42.5t246 -42.5t202 -120.5t137 -197.5t50 -264.5v-817h-500v106q-37 -55 -91.5 -84.5t-119.5 -29.5q-72 0 -121 47t-49 129v631q0 109 71.5 171t178.5 62q70 0 132 -19t89 -38l27 -19v-858h266v719 q0 159 -70.5 280.5t-187 183.5t-260.5 62q-142 0 -257.5 -62t-185 -183t-69.5 -281v-612q0 -121 40 -221t110 -166t163 -101.5t199 -35.5v-99q-131 0 -245 42t-200 119.5t-135 196.5t-49 265zM592 195q0 -49 28.5 -77t71.5 -28q70 0 117 46.5t47 123.5v635q-51 39 -131 39 q-57 0 -95 -36t-38 -99v-604z" />
<glyph unicode="A" horiz-adv-x="645" d="M33 0l213 1434h153l213 -1434h-118l-56 385h-233l-53 -385h-119zM213 483h219l-106 809h-4z" />
<glyph unicode="B" horiz-adv-x="661" d="M96 0v1434h236q107 0 178.5 -63.5t71.5 -172.5v-244q0 -77 -38.5 -132t-103.5 -79q67 -24 106.5 -80t39.5 -135v-292q0 -109 -71.5 -172.5t-178.5 -63.5h-240zM213 98h123q57 0 95 37.5t38 100.5v321q0 63 -38 99t-95 36h-123v-594zM213 791h119q57 0 95 36t38 99v272 q0 63 -38 100t-95 37h-119v-544z" />
<glyph unicode="C" horiz-adv-x="645" d="M80 219v993q0 106 69.5 168t172.5 62t173 -62.5t70 -167.5v-188h-116v188q0 60 -36.5 95.5t-90.5 35.5t-89.5 -35.5t-35.5 -95.5v-993q0 -60 35.5 -94.5t89.5 -34.5t90.5 34.5t36.5 94.5v191h116v-191q0 -105 -69.5 -166t-173.5 -61t-173 61t-69 166z" />
<glyph unicode="D" horiz-adv-x="667" d="M96 0v1434h242q107 0 178.5 -63.5t71.5 -172.5v-965q0 -109 -71.5 -171t-178.5 -62h-242zM213 98h125q57 0 95 36t38 99v965q0 63 -38 100t-95 37h-125v-1237z" />
<glyph unicode="E" horiz-adv-x="630" d="M96 0v1434h455v-99h-338v-551h297v-98h-297v-588h338v-98h-455z" />
<glyph unicode="F" horiz-adv-x="630" d="M96 0v1434h455v-99h-338v-551h297v-98h-297v-686h-117z" />
<glyph unicode="G" horiz-adv-x="645" d="M80 219v993q0 106 69.5 168t172.5 62t173 -62.5t70 -167.5v-188h-116v188q0 60 -36.5 95.5t-90.5 35.5t-89.5 -35.5t-35.5 -95.5v-993q0 -60 35.5 -94.5t89.5 -34.5t90.5 34.5t36.5 94.5v451h-125v98h241v-549q0 -105 -69.5 -166t-173.5 -61t-173 61t-69 166z" />
<glyph unicode="H" horiz-adv-x="692" d="M96 0v1434h117v-650h266v650h117v-1434h-117v686h-266v-686h-117z" />
<glyph unicode="I" horiz-adv-x="309" d="M96 0v1434h117v-1434h-117z" />
<glyph unicode="J" horiz-adv-x="645" d="M80 221v189h117v-189q0 -60 36.5 -95.5t90.5 -35.5t89.5 35.5t35.5 95.5v1213h116v-1213q0 -106 -69 -167.5t-172 -61.5q-104 0 -174 62t-70 167z" />
<glyph unicode="K" horiz-adv-x="655" d="M96 0v1434h117v-650h76l203 650h120l-231 -699l240 -735h-123l-207 686h-78v-686h-117z" />
<glyph unicode="L" horiz-adv-x="585" d="M96 0v1434h117v-1336h328v-98h-445z" />
<glyph unicode="M" horiz-adv-x="968" d="M96 0v1434h174l209 -1256h4l215 1256h172v-1434h-112v1227h-4l-203 -1227h-135l-203 1227h-4v-1227h-113z" />
<glyph unicode="N" horiz-adv-x="694" d="M96 0v1434h107l278 -1080h4v1080h113v-1434h-106l-279 1079h-4v-1079h-113z" />
<glyph unicode="O" d="M80 225v981q0 109 70.5 172.5t177.5 63.5t178.5 -63.5t71.5 -172.5v-981q0 -109 -71.5 -171t-178.5 -62t-177.5 62t-70.5 171zM197 225q0 -62 37.5 -98.5t93.5 -36.5q57 0 95 36t38 99v981q0 63 -38 100t-95 37q-56 0 -93.5 -37t-37.5 -100v-981z" />
<glyph unicode="P" horiz-adv-x="661" d="M96 0v1434h236q107 0 178.5 -63.5t71.5 -172.5v-377q0 -109 -71.5 -171t-178.5 -62h-119v-588h-117zM213 686h119q57 0 95 36t38 99v377q0 63 -38 100t-95 37h-119v-649z" />
<glyph unicode="Q" d="M80 225v981q0 109 70.5 172.5t177.5 63.5t178.5 -63.5t71.5 -172.5v-981q0 -93 -53 -152t-138 -73v-31q0 -62 37.5 -98.5t93.5 -36.5h60v-98h-60q-107 0 -177.5 62t-70.5 171v31q-86 14 -138 72.5t-52 152.5zM197 225q0 -62 37.5 -98.5t93.5 -36.5q57 0 95 36t38 99v981 q0 63 -38 100t-95 37q-56 0 -93.5 -37t-37.5 -100v-981z" />
<glyph unicode="R" horiz-adv-x="661" d="M96 0v1434h236q107 0 178.5 -63.5t71.5 -172.5v-340q0 -82 -41.5 -135.5t-110.5 -73.5l191 -649h-121l-170 625h-117v-625h-117zM213 723h119q57 0 95 36t38 99v340q0 63 -38 100t-95 37h-119v-612z" />
<glyph unicode="S" d="M80 225v185h117v-185q0 -62 37.5 -98.5t93.5 -36.5q57 0 95 36t38 99v281q0 46 -21 79.5t-54.5 54t-73.5 38.5t-80.5 39t-74 49t-54.5 76t-21 112v256q0 107 70.5 169.5t175.5 62.5q106 0 176.5 -62.5t70.5 -169.5v-186h-116v186q0 61 -37.5 97t-93.5 36t-92.5 -36 t-36.5 -97v-256q0 -47 21 -81t54.5 -54.5t73.5 -38.5t80.5 -39t74 -48.5t54.5 -75t21 -111.5v-281q0 -109 -71.5 -171t-178.5 -62t-177.5 62t-70.5 171z" />
<glyph unicode="T" horiz-adv-x="587" d="M39 1335v99h510v-99h-197v-1335h-116v1335h-197z" />
<glyph unicode="U" d="M80 225v1209h117v-1209q0 -62 37.5 -98.5t93.5 -36.5q57 0 95 36t38 99v1209h117v-1209q0 -109 -71.5 -171t-178.5 -62t-177.5 62t-70.5 171z" />
<glyph unicode="V" horiz-adv-x="645" d="M33 1434h119l167 -1293h5l170 1293h118l-213 -1434h-153z" />
<glyph unicode="W" horiz-adv-x="1093" d="M33 1434h121l161 -1297h4l150 1297h154l147 -1297h4l162 1297h121l-209 -1434h-158l-143 1286h-4l-144 -1286h-155z" />
<glyph unicode="X" horiz-adv-x="645" d="M29 0l204 737l-198 697h121l166 -641h4l163 641h121l-198 -699l204 -735h-120l-170 682h-4l-172 -682h-121z" />
<glyph unicode="Y" horiz-adv-x="645" d="M33 1434h117l169 -764h5l172 764h116l-233 -957v-477h-117v477z" />
<glyph unicode="Z" horiz-adv-x="647" d="M80 0v63l362 1272h-362v99h487v-64l-360 -1272h360v-98h-487z" />
<glyph unicode="[" horiz-adv-x="395" d="M80 -207v1743h268v-98h-151v-1544h151v-101h-268z" />
<glyph unicode="\" horiz-adv-x="606" d="M63 1528h117l363 -1733h-117z" />
<glyph unicode="]" horiz-adv-x="395" d="M47 -111h152v1547h-152v100h268v-1743h-268v96z" />
<glyph unicode="^" horiz-adv-x="684" d="M59 1169l326 275l326 -275l-70 -69l-256 221l-256 -221z" />
<glyph unicode="_" d="M-4 -51h666v-99h-666v99z" />
<glyph unicode="`" horiz-adv-x="548" d="M113 1366l69 70l252 -209l-69 -72z" />
<glyph unicode="a" d="M80 162v184q0 106 63 163.5t166 70.5l152 18v201q0 63 -37 99t-94 36t-95 -36t-38 -99v-101h-117v101q0 109 71.5 171t178.5 62t177.5 -62t70.5 -171v-799h-117v106q-34 -55 -93.5 -84.5t-123.5 -29.5q-70 0 -117 45.5t-47 124.5zM197 188q0 -46 27 -72t67 -26 q67 0 118.5 47t51.5 123v240l-131 -17q-60 -8 -96.5 -42t-36.5 -95v-158z" />
<glyph unicode="b" horiz-adv-x="671" d="M92 68v1417h117v-567q37 55 91.5 84.5t119.5 29.5q74 0 123 -47t49 -129v-631q0 -109 -71.5 -171t-180.5 -62q-70 0 -132 19t-89 38zM209 129q51 -39 131 -39q58 0 96.5 36.5t38.5 98.5v604q0 48 -29 76.5t-71 28.5q-71 0 -118.5 -46.5t-47.5 -123.5v-635z" />
<glyph unicode="c" horiz-adv-x="645" d="M80 219v584q0 105 69.5 167t172.5 62q104 0 173.5 -62t69.5 -167v-105h-116v105q0 60 -36.5 95.5t-90.5 35.5t-89.5 -35.5t-35.5 -95.5v-584q0 -60 35.5 -94.5t89.5 -34.5t90.5 34.5t36.5 94.5v107h116v-107q0 -105 -69.5 -166t-173.5 -61t-173 61t-69 166z" />
<glyph unicode="d" horiz-adv-x="673" d="M80 168v631q0 109 65 171t164 62q88 0 152 -35v488h117v-1485h-117v106q-35 -55 -90 -84.5t-119 -29.5q-74 0 -123 47t-49 129zM197 195q0 -49 28.5 -77t71.5 -28q71 0 117.5 46t46.5 124v635q-51 39 -131 39q-57 0 -95 -36t-38 -99v-604z" />
<glyph unicode="e" d="M80 225v572q0 109 70.5 172t177.5 63t178.5 -63t71.5 -172v-322h-381v-250q0 -62 37.5 -98.5t93.5 -36.5q57 0 95 36t38 99v101h117v-101q0 -109 -71.5 -171t-178.5 -62t-177.5 62t-70.5 171zM197 573h264v224q0 67 -37 102t-96 35q-57 0 -94 -35t-37 -102v-224z" />
<glyph unicode="f" horiz-adv-x="477" d="M96 0v1257q0 110 69 173t173 63q46 0 100 -12v-101q-45 15 -88 15q-60 0 -98.5 -37.5t-38.5 -100.5v-233h225v-98h-225v-926h-117z" />
<glyph unicode="g" d="M80 -164h117v-69q0 -63 38 -100.5t95 -37.5t94 37.5t37 100.5v339q-35 -55 -90 -84.5t-119 -29.5q-74 0 -123 47t-49 129v631q0 109 71.5 171t178.5 62q70 0 132 -19t89 -38l27 -19v-1189q0 -109 -70.5 -172.5t-177.5 -63.5t-178.5 63.5t-71.5 172.5v69zM197 195 q0 -49 28.5 -77t71.5 -28q71 0 117.5 46t46.5 124v635q-51 39 -131 39q-57 0 -95 -36t-38 -99v-604z" />
<glyph unicode="h" horiz-adv-x="673" d="M96 0v1485h117v-567q37 55 91.5 84.5t119.5 29.5q74 0 123 -47t49 -129v-856h-117v829q0 48 -29 76.5t-71 28.5q-71 0 -118.5 -46.5t-47.5 -123.5v-764h-117z" />
<glyph unicode="i" horiz-adv-x="309" d="M96 0v1024h117v-1024h-117zM96 1241v193h117v-193h-117z" />
<glyph unicode="j" horiz-adv-x="309" d="M-94 -356q35 -15 78 -15q48 0 80 30t32 81v1284h117v-1284q0 -97 -62.5 -153t-156.5 -56q-55 0 -88 14v99zM96 1241v193h117v-193h-117z" />
<glyph unicode="k" horiz-adv-x="655" d="M96 0v1485h117v-914h96l183 453h122l-219 -500l226 -524h-123l-189 477h-96v-477h-117z" />
<glyph unicode="l" horiz-adv-x="309" d="M96 0v1485h117v-1485h-117z" />
<glyph unicode="m" horiz-adv-x="1056" d="M96 0v1024h117v-106q37 55 91.5 84.5t119.5 29.5q63 0 108 -31.5t58 -87.5q38 58 94.5 88.5t120.5 30.5q74 0 123 -47t49 -129v-856h-117v829q0 48 -28.5 76.5t-71.5 28.5q-69 0 -116.5 -47t-47.5 -121v-766h-117v829q0 48 -29 76.5t-71 28.5q-71 0 -118.5 -46.5 t-47.5 -123.5v-764h-117z" />
<glyph unicode="n" horiz-adv-x="673" d="M96 0v1024h117v-106q37 55 91.5 84.5t119.5 29.5q74 0 123 -47t49 -129v-856h-117v829q0 48 -29 76.5t-71 28.5q-71 0 -118.5 -46.5t-47.5 -123.5v-764h-117z" />
<glyph unicode="o" d="M80 225v572q0 109 70.5 172t177.5 63t178.5 -63t71.5 -172v-572q0 -109 -71.5 -171t-178.5 -62t-177.5 62t-70.5 171zM197 225q0 -62 37.5 -98.5t93.5 -36.5q57 0 95 36t38 99v572q0 63 -38 100t-95 37q-56 0 -93.5 -37t-37.5 -100v-572z" />
<glyph unicode="p" horiz-adv-x="673" d="M96 -410v1434h117v-106q37 55 91.5 84.5t119.5 29.5q74 0 123 -47t49 -129v-631q0 -109 -65.5 -171t-163.5 -62q-90 0 -154 35v-437h-117zM213 129q51 -39 131 -39q58 0 96.5 36.5t38.5 98.5v604q0 48 -29 76.5t-71 28.5q-71 0 -118.5 -46.5t-47.5 -123.5v-635z" />
<glyph unicode="q" d="M80 168v631q0 109 71.5 171t178.5 62q70 0 132 -19t89 -38l27 -19v-1366h-117v516q-35 -55 -90 -84.5t-119 -29.5q-74 0 -123 47t-49 129zM197 195q0 -49 28.5 -77t71.5 -28q71 0 117.5 46t46.5 124v635q-51 39 -131 39q-57 0 -95 -36t-38 -99v-604z" />
<glyph unicode="r" horiz-adv-x="591" d="M96 0v1024h117v-150q71 158 205 158q54 0 89.5 -34.5t35.5 -94.5v-205h-117v170q0 30 -17 48t-44 18q-70 0 -111 -68.5t-41 -167.5v-698h-117z" />
<glyph unicode="s" horiz-adv-x="645" d="M80 219v107h117v-107q0 -60 35.5 -94.5t89.5 -34.5t90.5 34.5t36.5 94.5v123q0 55 -38 87t-91.5 49t-107.5 37.5t-92 69.5t-38 128v94q0 105 68 165t172 60t172.5 -60t68.5 -165v-109h-117v109q0 59 -35.5 93t-88.5 34t-88 -34t-35 -93v-94q0 -41 20 -68.5t52.5 -43 t71.5 -28t78 -28.5t71.5 -38.5t52.5 -64.5t20 -100v-123q0 -105 -69.5 -166t-173.5 -61t-173 61t-69 166z" />
<glyph unicode="t" horiz-adv-x="483" d="M96 227v1043h117v-246h225v-98h-225v-699q0 -63 38.5 -100t98.5 -37q46 0 88 14v-100q-54 -12 -100 -12q-104 0 -173 62.5t-69 172.5z" />
<glyph unicode="u" horiz-adv-x="673" d="M80 168v856h117v-829q0 -49 28.5 -77t71.5 -28q71 0 117.5 46t46.5 124v764h117v-1024h-117v106q-35 -55 -90 -84.5t-119 -29.5q-74 0 -123 47t-49 129z" />
<glyph unicode="v" horiz-adv-x="645" d="M33 1024h121l165 -915h5l168 915h120l-213 -1024h-153z" />
<glyph unicode="w" horiz-adv-x="1042" d="M33 1024h121l151 -913h4l135 913h150l137 -913h4l150 913h121l-197 -1024h-154l-133 903h-4l-135 -903h-154z" />
<glyph unicode="x" d="M35 0l219 524l-213 500h123l162 -428h4l164 428h122l-210 -500l217 -524h-123l-170 457h-4l-168 -457h-123z" />
<glyph unicode="y" horiz-adv-x="671" d="M80 -164h117v-69q0 -63 38 -100.5t95 -37.5t94 37.5t37 100.5v339q-35 -55 -90 -84.5t-119 -29.5q-74 0 -123 47t-49 129v856h117v-829q0 -49 28.5 -77t71.5 -28q71 0 117.5 46t46.5 124v764h117v-1257q0 -109 -70.5 -172.5t-177.5 -63.5t-178.5 63.5t-71.5 172.5v69z " />
<glyph unicode="z" horiz-adv-x="647" d="M80 0v63l358 863h-358v98h487v-63l-354 -863h354v-98h-487z" />
<glyph unicode="{" horiz-adv-x="518" d="M49 618v103h21q57 0 95 37t38 100v451q0 109 70.5 172t177.5 63h20v-98h-20q-57 0 -94.5 -37t-37.5 -100v-451q0 -126 -102 -190q46 -26 74 -73.5t28 -111.5v-465q0 -61 38 -97t94 -36h20v-98h-20q-104 0 -176 62.5t-72 168.5v465q0 61 -38 98t-95 37h-21z" />
<glyph unicode="|" horiz-adv-x="309" d="M96 -205v1741h117v-1741h-117z" />
<glyph unicode="}" horiz-adv-x="518" d="M49 -115h21q57 0 95 37.5t38 100.5v450q0 129 102 191q-102 55 -102 184v465q-1 62 -38.5 97.5t-94.5 35.5h-21v98h21q106 0 177.5 -62t71.5 -169v-465q0 -62 37.5 -98.5t94.5 -36.5h20v-103h-20q-57 0 -94.5 -37t-37.5 -100v-450q0 -109 -70.5 -172.5t-178.5 -63.5h-21 v98z" />
<glyph unicode="~" horiz-adv-x="778" d="M80 483q0 85 54 135t136 50q40 0 69 -12t46.5 -29t33 -33.5t37.5 -28.5t50 -12q42 0 72 27.5t30 76.5h90q0 -85 -54.5 -134.5t-135.5 -49.5q-38 0 -67.5 12t-47.5 28.5t-34.5 33.5t-37.5 29t-47 12q-45 0 -74.5 -28t-29.5 -77h-90z" />
<glyph unicode="&#xa2;" horiz-adv-x="645" d="M80 219v584q0 91 50.5 149t131.5 72v205h117v-205q83 -14 134.5 -72t51.5 -149v-105h-116v105q0 60 -36.5 95.5t-90.5 35.5t-89.5 -35.5t-35.5 -95.5v-584q0 -60 35.5 -94.5t89.5 -34.5t90.5 34.5t36.5 94.5v107h116v-107q0 -91 -52 -149t-134 -70v-205h-117v205 q-81 12 -131.5 70t-50.5 149z" />
<glyph unicode="&#xa3;" horiz-adv-x="698" d="M49 0v98h84v527h-84v98h84v489q0 106 69.5 168t172.5 62q105 0 174 -62t69 -168v-188h-116v188q0 60 -36.5 95.5t-90.5 35.5q-53 0 -89 -35.5t-36 -95.5v-489h368v-98h-368v-527h368v-98h-569z" />
<glyph unicode="&#xa5;" horiz-adv-x="645" d="M33 1434h117l169 -764h5l172 764h116l-209 -850h168v-99h-190l-2 -8v-141h192v-98h-192v-238h-117v238h-188v98h188v141l-2 8h-186v99h162z" />
<glyph unicode="&#xa8;" horiz-adv-x="622" d="M106 1210v191h103v-191h-103zM397 1210v191h103v-191h-103z" />
<glyph unicode="&#xa9;" horiz-adv-x="1447" d="M92 543v346q0 168 85 295.5t227 192.5t317 65t318.5 -65t230 -192.5t86.5 -295.5v-346q0 -127 -50 -232t-137 -174.5t-202 -107t-246 -37.5t-245.5 37.5t-199.5 107t-134.5 174.5t-49.5 232zM209 543q0 -138 69.5 -242t185 -157.5t257.5 -53.5q144 0 260.5 53.5 t187 157.5t70.5 242v346q0 136 -70.5 240.5t-187.5 159t-260 54.5q-218 0 -365 -125t-147 -329v-346zM475 543v346q0 110 70.5 172.5t177.5 62.5t178.5 -62.5t71.5 -172.5v-70h-117v70q0 62 -38.5 99.5t-94.5 37.5t-93.5 -37t-37.5 -100v-346q0 -62 37.5 -98.5t93.5 -36.5 t94.5 36.5t38.5 98.5v71h117v-71q0 -109 -71.5 -171.5t-178.5 -62.5t-177.5 62.5t-70.5 171.5z" />
<glyph unicode="&#xab;" horiz-adv-x="616" d="M63 512l144 358h123l-148 -358l148 -358h-123zM301 512l143 358h121l-145 -358l145 -358h-121z" />
<glyph unicode="&#xad;" horiz-adv-x="442" d="M63 514v96h318v-96h-318z" />
<glyph unicode="&#xae;" horiz-adv-x="1447" d="M92 543v346q0 168 85 295.5t227 192.5t317 65t318.5 -65t230 -192.5t86.5 -295.5v-346q0 -127 -50 -232t-137 -174.5t-202 -107t-246 -37.5t-245.5 37.5t-199.5 107t-134.5 174.5t-49.5 232zM209 543q0 -138 69.5 -242t185 -157.5t257.5 -53.5q144 0 260.5 53.5 t187 157.5t70.5 242v346q0 136 -70.5 240.5t-187.5 159t-260 54.5q-218 0 -365 -125t-147 -329v-346zM487 342v752h248q105 0 171.5 -55.5t66.5 -153.5v-49q0 -71 -36 -118.5t-103 -66.5l163 -309h-112l-154 285h-127v-285h-117zM604 725h131q56 0 88.5 29.5t32.5 81.5v49 q0 52 -32.5 81t-88.5 29h-131v-270z" />
<glyph unicode="&#xb4;" horiz-adv-x="548" d="M113 1227l252 211l69 -70l-252 -213z" />
<glyph unicode="&#xb8;" horiz-adv-x="274" d="M92 10h90v-284h-90v284z" />
<glyph unicode="&#xbb;" horiz-adv-x="616" d="M49 154l148 358l-148 358h123l143 -358l-143 -358h-123zM287 154l147 358l-147 358h123l143 -358l-143 -358h-123z" />
<glyph unicode="&#x2c6;" horiz-adv-x="548" d="M37 1229l237 188l238 -188l-68 -70l-170 135l-170 -135z" />
<glyph unicode="&#x2da;" d="M162 1288q0 79 47 124.5t119 45.5t120 -45.5t48 -122.5q0 -79 -48 -122.5t-120 -43.5t-119 43.5t-47 120.5zM240 1288q0 -41 25.5 -66.5t62.5 -25.5q38 0 64 25t26 67q0 44 -26 70t-64 26q-37 0 -62.5 -26t-25.5 -70z" />
<glyph unicode="&#x2dc;" d="M82 1176q0 72 42 113.5t107 41.5q37 0 65 -13.5t42 -29.5t36 -29.5t48 -13.5q32 0 54 20.5t22 55.5h77q0 -71 -42.5 -113.5t-106.5 -42.5q-37 0 -65 13.5t-42.5 29.5t-36 29.5t-46.5 13.5q-32 0 -54 -20t-22 -55h-78z" />
<glyph unicode="&#x400;" horiz-adv-x="630" d="M96 0v1434h455v-99h-338v-551h297v-98h-297v-588h338v-98h-455zM154 1776l69 69l252 -209l-69 -71z" />
<glyph unicode="&#x401;" horiz-adv-x="630" d="M96 0v1434h455v-99h-338v-551h297v-98h-297v-588h338v-98h-455zM123 1536v190h102v-190h-102zM414 1536v190h102v-190h-102z" />
<glyph unicode="&#x402;" horiz-adv-x="815" d="M39 1335v99h510v-99h-197v-571q76 115 211 115q73 0 122.5 -47.5t49.5 -129.5v-968q0 -94 -61.5 -148.5t-153.5 -54.5q-94 0 -155.5 54.5t-61.5 148.5v106h117v-106q0 -48 28.5 -76.5t71.5 -28.5q41 0 69.5 28.5t28.5 76.5v942q0 48 -29 76t-71 28q-71 0 -118.5 -46.5 t-47.5 -123.5v-610h-116v1335h-197z" />
<glyph unicode="&#x403;" horiz-adv-x="579" d="M96 0v1434h436v-99h-319v-1335h-117zM129 1636l252 211l70 -69l-252 -213z" />
<glyph unicode="&#x404;" d="M80 225v981q0 109 70.5 172.5t177.5 63.5t178.5 -63.5t71.5 -172.5v-182h-117v182q0 67 -37 102t-96 35q-57 0 -94 -35t-37 -102v-428h305v-98h-305v-455q0 -62 37.5 -98.5t93.5 -36.5q57 0 95 36t38 99v185h117v-185q0 -109 -71.5 -171t-178.5 -62t-177.5 62t-70.5 171z " />
<glyph unicode="&#x405;" d="M80 225v185h117v-185q0 -62 37.5 -98.5t93.5 -36.5q57 0 95 36t38 99v281q0 46 -21 79.5t-54.5 54t-73.5 38.5t-80.5 39t-74 49t-54.5 76t-21 112v256q0 107 70.5 169.5t175.5 62.5q106 0 176.5 -62.5t70.5 -169.5v-186h-116v186q0 61 -37.5 97t-93.5 36t-92.5 -36 t-36.5 -97v-256q0 -47 21 -81t54.5 -54.5t73.5 -38.5t80.5 -39t74 -48.5t54.5 -75t21 -111.5v-281q0 -109 -71.5 -171t-178.5 -62t-177.5 62t-70.5 171z" />
<glyph unicode="&#x406;" horiz-adv-x="309" d="M96 0v1434h117v-1434h-117z" />
<glyph unicode="&#x407;" horiz-adv-x="309" d="M-41 1554v191h102v-191h-102zM96 0v1434h117v-1434h-117zM250 1554v191h102v-191h-102z" />
<glyph unicode="&#x408;" horiz-adv-x="645" d="M80 221v189h117v-189q0 -60 36.5 -95.5t90.5 -35.5t89.5 35.5t35.5 95.5v1213h116v-1213q0 -106 -69 -167.5t-172 -61.5q-104 0 -174 62t-70 167z" />
<glyph unicode="&#x409;" horiz-adv-x="1060" d="M47 -8v98q46 0 76.5 45.5t30.5 122.5v1176h458v-650h119q107 0 178.5 -62t71.5 -171v-315q0 -109 -71.5 -172.5t-178.5 -63.5h-235v1335h-226v-1077q0 -123 -63.5 -194.5t-159.5 -71.5zM612 98h119q57 0 95 37.5t38 100.5v315q0 63 -38 99t-95 36h-119v-588z" />
<glyph unicode="&#x40a;" horiz-adv-x="1044" d="M96 0v1434h117v-650h266v650h117v-650h117q109 0 180.5 -62t71.5 -171v-315q0 -109 -72 -172.5t-180 -63.5h-234v686h-266v-686h-117zM596 98h117q57 0 96 37.5t39 100.5v315q0 62 -38.5 98.5t-96.5 36.5h-117v-588z" />
<glyph unicode="&#x40b;" horiz-adv-x="815" d="M39 1335v99h510v-99h-197v-571q76 115 211 115q73 0 122.5 -47.5t49.5 -129.5v-702h-117v676q0 48 -29 76t-71 28q-71 0 -118.5 -46.5t-47.5 -123.5v-610h-116v1335h-197z" />
<glyph unicode="&#x40c;" horiz-adv-x="655" d="M96 0v1434h117v-650h76l203 650h120l-231 -699l240 -735h-123l-207 686h-78v-686h-117zM166 1636l252 211l69 -69l-251 -213z" />
<glyph unicode="&#x40d;" horiz-adv-x="694" d="M96 0v1434h113v-1045h4l272 942v103h113v-1434h-113v1044h-2l-274 -942v-102h-113zM186 1776l70 69l252 -209l-70 -71z" />
<glyph unicode="&#x40e;" horiz-adv-x="645" d="M33 1434h121l165 -916h5l168 916h120l-264 -1244q-19 -92 -74 -141t-143 -49h-57v98h57q77 0 100 95l50 217h-35zM129 1747h86q0 -52 30.5 -82.5t76.5 -30.5q47 0 78.5 30.5t31.5 82.5h84q0 -86 -55.5 -137t-138.5 -51q-82 0 -137.5 50.5t-55.5 137.5z" />
<glyph unicode="&#x40f;" horiz-adv-x="692" d="M96 0v1434h117v-1336h266v1336h117v-1434h-190v-256h-117v256h-193z" />
<glyph unicode="&#x410;" horiz-adv-x="645" d="M33 0l213 1434h153l213 -1434h-118l-56 385h-233l-53 -385h-119zM213 483h219l-106 809h-4z" />
<glyph unicode="&#x411;" horiz-adv-x="661" d="M96 0v1434h461v-99h-344v-481h119q107 0 178.5 -62t71.5 -171v-385q0 -109 -71.5 -172.5t-178.5 -63.5h-236zM213 98h119q57 0 95 37.5t38 100.5v385q0 63 -38 99t-95 36h-119v-658z" />
<glyph unicode="&#x412;" horiz-adv-x="661" d="M96 0v1434h236q107 0 178.5 -63.5t71.5 -172.5v-244q0 -77 -38.5 -132t-103.5 -79q67 -24 106.5 -80t39.5 -135v-292q0 -109 -71.5 -172.5t-178.5 -63.5h-240zM213 98h123q57 0 95 37.5t38 100.5v321q0 63 -38 99t-95 36h-123v-594zM213 791h119q57 0 95 36t38 99v272 q0 63 -38 100t-95 37h-119v-544z" />
<glyph unicode="&#x413;" horiz-adv-x="579" d="M96 0v1434h436v-99h-319v-1335h-117z" />
<glyph unicode="&#x414;" horiz-adv-x="780" d="M47 98h21q46 0 77 45.5t31 122.5v1168h459v-1336h98v-354h-117v256h-452v-256h-117v354zM240 98h278v1237h-225v-1069q0 -109 -53 -168z" />
<glyph unicode="&#x415;" horiz-adv-x="630" d="M96 0v1434h455v-99h-338v-551h297v-98h-297v-588h338v-98h-455z" />
<glyph unicode="&#x416;" horiz-adv-x="1003" d="M37 0l239 735l-233 699h123l201 -650h77v650h117v-650h76l203 650h121l-234 -699l240 -735h-121l-209 686h-76v-686h-117v686h-77l-209 -686h-121z" />
<glyph unicode="&#x417;" horiz-adv-x="649" d="M76 1024v190q0 105 69.5 166.5t173.5 61.5q107 0 178.5 -63.5t71.5 -172.5v-252q0 -77 -38 -132t-103 -79q67 -24 106 -79.5t39 -135.5v-301q0 -109 -71 -172t-178 -63q-104 0 -174 62t-70 167v189h117v-189q0 -60 36.5 -95.5t90.5 -35.5q57 0 95 37t38 100v330 q0 63 -38 99t-95 36h-105v99h100q58 0 96 36t38 99v280q0 63 -38.5 100t-95.5 37q-54 0 -90 -34.5t-36 -94.5v-190h-117z" />
<glyph unicode="&#x418;" horiz-adv-x="694" d="M96 0v1434h113v-1045h4l272 942v103h113v-1434h-113v1044h-2l-274 -942v-102h-113z" />
<glyph unicode="&#x419;" horiz-adv-x="694" d="M96 0v1434h113v-1045h4l272 942v103h113v-1434h-113v1044h-2l-274 -942v-102h-113zM154 1747h86q0 -52 30 -82.5t76 -30.5q48 0 79.5 30.5t31.5 82.5h84q0 -86 -56 -137t-139 -51q-82 0 -137 50.5t-55 137.5z" />
<glyph unicode="&#x41a;" horiz-adv-x="655" d="M96 0v1434h117v-650h76l203 650h120l-231 -699l240 -735h-123l-207 686h-78v-686h-117z" />
<glyph unicode="&#x41b;" horiz-adv-x="708" d="M47 -8v98q46 0 76.5 45.5t30.5 122.5v1176h458v-1434h-116v1335h-226v-1077q0 -123 -63.5 -194.5t-159.5 -71.5z" />
<glyph unicode="&#x41c;" horiz-adv-x="968" d="M96 0v1434h174l209 -1256h4l215 1256h172v-1434h-112v1227h-4l-203 -1227h-135l-203 1227h-4v-1227h-113z" />
<glyph unicode="&#x41d;" horiz-adv-x="692" d="M96 0v1434h117v-650h266v650h117v-1434h-117v686h-266v-686h-117z" />
<glyph unicode="&#x41e;" d="M80 225v981q0 109 70.5 172.5t177.5 63.5t178.5 -63.5t71.5 -172.5v-981q0 -109 -71.5 -171t-178.5 -62t-177.5 62t-70.5 171zM197 225q0 -62 37.5 -98.5t93.5 -36.5q57 0 95 36t38 99v981q0 63 -38 100t-95 37q-56 0 -93.5 -37t-37.5 -100v-981z" />
<glyph unicode="&#x41f;" horiz-adv-x="692" d="M96 0v1434h500v-1434h-117v1335h-266v-1335h-117z" />
<glyph unicode="&#x420;" horiz-adv-x="661" d="M96 0v1434h236q107 0 178.5 -63.5t71.5 -172.5v-377q0 -109 -71.5 -171t-178.5 -62h-119v-588h-117zM213 686h119q57 0 95 36t38 99v377q0 63 -38 100t-95 37h-119v-649z" />
<glyph unicode="&#x421;" horiz-adv-x="645" d="M80 219v993q0 106 69.5 168t172.5 62t173 -62.5t70 -167.5v-188h-116v188q0 60 -36.5 95.5t-90.5 35.5t-89.5 -35.5t-35.5 -95.5v-993q0 -60 35.5 -94.5t89.5 -34.5t90.5 34.5t36.5 94.5v191h116v-191q0 -105 -69.5 -166t-173.5 -61t-173 61t-69 166z" />
<glyph unicode="&#x422;" horiz-adv-x="587" d="M39 1335v99h510v-99h-197v-1335h-116v1335h-197z" />
<glyph unicode="&#x423;" horiz-adv-x="645" d="M33 1434h121l165 -916h5l168 916h120l-264 -1244q-19 -92 -74 -141t-143 -49h-57v98h57q77 0 100 95l50 217h-35z" />
<glyph unicode="&#x424;" horiz-adv-x="950" d="M80 403v629q0 109 71.5 171.5t178.5 62.5h86v168h116v-168h89q107 0 178 -62.5t71 -171.5v-629q0 -109 -71 -172t-178 -63h-89v-168h-116v168h-86q-107 0 -178.5 63t-71.5 172zM197 403q0 -63 38 -100t95 -37h86v901h-86q-57 0 -95 -37t-38 -98v-629zM532 266h89 q56 0 94.5 37.5t38.5 99.5v629q0 61 -38.5 98t-94.5 37h-89v-901z" />
<glyph unicode="&#x425;" horiz-adv-x="645" d="M29 0l204 737l-198 697h121l166 -641h4l163 641h121l-198 -699l204 -735h-120l-170 682h-4l-172 -682h-121z" />
<glyph unicode="&#x426;" horiz-adv-x="739" d="M96 0v1434h117v-1336h266v1336h117v-1336h98v-354h-116v256h-482z" />
<glyph unicode="&#x427;" horiz-adv-x="673" d="M80 762v672h117v-646q0 -48 28.5 -75t71.5 -27q71 0 117.5 46t46.5 124v578h117v-1434h-117v700q-35 -53 -90 -82.5t-119 -29.5q-73 0 -122.5 46.5t-49.5 127.5z" />
<glyph unicode="&#x428;" horiz-adv-x="1046" d="M96 0v1434h117v-1336h252v1336h117v-1336h252v1336h116v-1434h-854z" />
<glyph unicode="&#x429;" horiz-adv-x="1095" d="M96 0v1434h117v-1336h252v1336h117v-1336h252v1336h116v-1336h101v-354h-117v256h-838z" />
<glyph unicode="&#x42a;" horiz-adv-x="800" d="M47 1335v99h305v-580h119q107 0 178.5 -62t71.5 -171v-385q0 -109 -71.5 -172.5t-178.5 -63.5h-235v1335h-189zM352 98h119q57 0 95 37.5t38 100.5v385q0 63 -38 99t-95 36h-119v-658z" />
<glyph unicode="&#x42b;" horiz-adv-x="915" d="M96 0v1434h117v-580h119q107 0 178.5 -62t71.5 -171v-385q0 -109 -71.5 -172.5t-178.5 -63.5h-236zM213 98h119q57 0 95 37.5t38 100.5v385q0 63 -38 99t-95 36h-119v-658zM702 0v1434h117v-1434h-117z" />
<glyph unicode="&#x42c;" horiz-adv-x="661" d="M96 0v1434h117v-580h119q107 0 178.5 -62t71.5 -171v-385q0 -109 -71.5 -172.5t-178.5 -63.5h-236zM213 98h119q57 0 95 37.5t38 100.5v385q0 63 -38 99t-95 36h-119v-658z" />
<glyph unicode="&#x42d;" d="M80 225v185h117v-185q0 -63 38 -99t95 -36t94 36t37 99v455h-258v98h258v428q0 68 -36 102.5t-95 34.5t-96 -35t-37 -102v-182h-117v182q0 109 71.5 172.5t178.5 63.5t177.5 -63.5t70.5 -172.5v-981q0 -109 -70.5 -171t-177.5 -62t-178.5 62t-71.5 171z" />
<glyph unicode="&#x42e;" horiz-adv-x="940" d="M96 0v1434h117v-656h149v428q0 109 70.5 172.5t177.5 63.5t178.5 -63.5t71.5 -172.5v-981q0 -109 -71.5 -171t-178.5 -62t-177.5 62t-70.5 171v455h-149v-680h-117zM479 225q0 -62 37.5 -98.5t93.5 -36.5q57 0 95 36t38 99v981q0 63 -38 100t-95 37q-56 0 -93.5 -37 t-37.5 -100v-981z" />
<glyph unicode="&#x42f;" horiz-adv-x="661" d="M41 0l190 649q-69 20 -110 73.5t-41 135.5v340q0 109 71.5 172.5t178.5 63.5h235v-1434h-116v625h-117l-170 -625h-121zM197 858q0 -63 38 -99t95 -36h119v612h-119q-57 0 -95 -37t-38 -100v-340z" />
<glyph unicode="&#x430;" d="M80 162v184q0 107 63 165t166 69l152 18v201q0 63 -37 99t-94 36t-95 -36t-38 -99v-101h-117v101q0 109 71.5 171t178.5 62t177.5 -62t70.5 -171v-799h-117v106q-34 -55 -93.5 -84.5t-123.5 -29.5q-70 0 -117 45.5t-47 124.5zM197 188q0 -46 27 -72t67 -26q67 0 118.5 47 t51.5 123v240l-131 -17q-60 -8 -96.5 -42t-36.5 -95v-158z" />
<glyph unicode="&#x431;" d="M80 225v850q0 62 20 108.5t52 73.5t70.5 46.5t77 35t70.5 33t52 46t20 67.5h95q0 -55 -19 -95t-48.5 -63t-66 -41t-73 -34.5t-66 -36.5t-48.5 -55.5t-19 -84.5v-157q37 55 91.5 84.5t119.5 29.5q72 0 121 -47t49 -129v-631q0 -109 -71.5 -171t-178.5 -62t-177.5 62 t-70.5 171zM197 225q0 -62 37.5 -98.5t93.5 -36.5q57 0 95 36t38 99v604q0 48 -29 76.5t-72 28.5q-70 0 -116.5 -46.5t-46.5 -123.5v-539z" />
<glyph unicode="&#x432;" horiz-adv-x="661" d="M96 0v1024h236q102 0 169.5 -59.5t67.5 -163.5v-64q0 -74 -35 -124.5t-94 -73.5q67 -24 106.5 -80t39.5 -135v-88q0 -109 -71.5 -172.5t-178.5 -63.5h-240zM213 98h123q57 0 95 37.5t38 100.5v116q0 63 -38 99t-95 36h-123v-389zM213 586h119q53 0 87 33t34 90v92 q0 58 -34 91.5t-87 33.5h-119v-340z" />
<glyph unicode="&#x433;" horiz-adv-x="559" d="M96 0v1024h418v-98h-301v-926h-117z" />
<glyph unicode="&#x434;" horiz-adv-x="780" d="M47 98h21q46 0 77 45.5t31 122.5v758h459v-926h98v-354h-117v256h-452v-256h-117v354zM240 98h278v828h-225v-660q0 -109 -53 -168z" />
<glyph unicode="&#x435;" d="M80 225v572q0 109 70.5 172t177.5 63t178.5 -63t71.5 -172v-322h-381v-250q0 -62 37.5 -98.5t93.5 -36.5q57 0 95 36t38 99v101h117v-101q0 -109 -71.5 -171t-178.5 -62t-177.5 62t-70.5 171zM197 573h264v224q0 67 -37 102t-96 35q-57 0 -94 -35t-37 -102v-224z" />
<glyph unicode="&#x436;" horiz-adv-x="1001" d="M35 0l225 524l-219 500h123l182 -453h96v453h117v-453h96l181 453h122l-217 -500l226 -524h-123l-189 477h-96v-477h-117v477h-96l-188 -477h-123z" />
<glyph unicode="&#x437;" horiz-adv-x="649" d="M76 698v107q0 105 69.5 166t173.5 61q107 0 178.5 -63t71.5 -172v-54q0 -79 -38 -133t-103 -78q67 -26 106 -81t39 -134v-90q0 -109 -71 -172t-178 -63q-104 0 -174 62t-70 167v105h117v-105q0 -60 36.5 -95.5t90.5 -35.5q57 0 95 37t38 100v119q0 63 -38 99t-95 36h-101 v99h96q58 0 96 36t38 99v82q0 63 -38.5 100t-95.5 37q-54 0 -90 -34.5t-36 -94.5v-107h-117z" />
<glyph unicode="&#x438;" horiz-adv-x="694" d="M96 0v1024h113v-721h4l272 672v49h113v-1024h-113v721h-2l-274 -672v-49h-113z" />
<glyph unicode="&#x439;" horiz-adv-x="694" d="M96 0v1024h113v-721h4l272 672v49h113v-1024h-113v721h-2l-274 -672v-49h-113zM154 1337h86q0 -52 30 -82t76 -30q48 0 79.5 30t31.5 82h84q0 -86 -56 -137t-139 -51q-82 0 -137 50.5t-55 137.5z" />
<glyph unicode="&#x43a;" horiz-adv-x="655" d="M96 0v1024h117v-453h96l183 453h122l-219 -500l226 -524h-123l-189 477h-96v-477h-117z" />
<glyph unicode="&#x43b;" horiz-adv-x="708" d="M47 -8v98q46 0 76.5 45.5t30.5 122.5v766h458v-1024h-116v926h-226v-668q0 -123 -63.5 -194.5t-159.5 -71.5z" />
<glyph unicode="&#x43c;" horiz-adv-x="952" d="M96 0v1024h172l205 -874h4l205 874h174v-1024h-108v881h-5l-200 -881h-133l-201 881h-4v-881h-109z" />
<glyph unicode="&#x43d;" horiz-adv-x="692" d="M96 0v1024h117v-451h266v451h117v-1024h-117v475h-266v-475h-117z" />
<glyph unicode="&#x43e;" d="M80 225v572q0 109 70.5 172t177.5 63t178.5 -63t71.5 -172v-572q0 -109 -71.5 -171t-178.5 -62t-177.5 62t-70.5 171zM197 225q0 -62 37.5 -98.5t93.5 -36.5q57 0 95 36t38 99v572q0 63 -38 100t-95 37q-56 0 -93.5 -37t-37.5 -100v-572z" />
<glyph unicode="&#x43f;" horiz-adv-x="692" d="M96 0v1024h500v-1024h-117v926h-266v-926h-117z" />
<glyph unicode="&#x440;" horiz-adv-x="673" d="M96 -410v1434h117v-106q37 55 91.5 84.5t119.5 29.5q74 0 123 -47t49 -129v-631q0 -109 -65.5 -171t-163.5 -62q-90 0 -154 35v-437h-117zM213 129q51 -39 131 -39q58 0 96.5 36.5t38.5 98.5v604q0 48 -29 76.5t-71 28.5q-71 0 -118.5 -46.5t-47.5 -123.5v-635z" />
<glyph unicode="&#x441;" horiz-adv-x="645" d="M80 219v584q0 105 69.5 167t172.5 62q104 0 173.5 -62t69.5 -167v-105h-116v105q0 60 -36.5 95.5t-90.5 35.5t-89.5 -35.5t-35.5 -95.5v-584q0 -60 35.5 -94.5t89.5 -34.5t90.5 34.5t36.5 94.5v107h116v-107q0 -105 -69.5 -166t-173.5 -61t-173 61t-69 166z" />
<glyph unicode="&#x442;" horiz-adv-x="587" d="M39 926v98h510v-98h-197v-926h-116v926h-197z" />
<glyph unicode="&#x443;" horiz-adv-x="645" d="M33 1024h121l165 -915h5l168 915h120l-264 -1243q-19 -92 -74 -141.5t-143 -49.5h-57v99h57q78 0 100 94l50 217h-35z" />
<glyph unicode="&#x444;" horiz-adv-x="950" d="M80 236v555q0 109 71.5 171t178.5 62h86v461h116v-461h89q107 0 178 -62t71 -171v-555q0 -109 -71 -172.5t-178 -63.5h-89v-410h-116v410h-86q-107 0 -178.5 63.5t-71.5 172.5zM197 236q0 -63 38 -100.5t95 -37.5h86v828h-86q-57 0 -95 -36t-38 -99v-555zM532 98h89 q56 0 94.5 37.5t38.5 100.5v555q0 62 -38.5 98.5t-94.5 36.5h-89v-828z" />
<glyph unicode="&#x445;" d="M35 0l219 524l-213 500h123l162 -428h4l164 428h122l-210 -500l217 -524h-123l-170 457h-4l-168 -457h-123z" />
<glyph unicode="&#x446;" horiz-adv-x="739" d="M96 0v1024h117v-926h266v926h117v-926h98v-354h-116v256h-482z" />
<glyph unicode="&#x447;" horiz-adv-x="673" d="M80 557v467h117v-440q0 -48 28.5 -75.5t71.5 -27.5q71 0 117.5 46t46.5 124v373h117v-1024h-117v496q-35 -54 -90.5 -83.5t-118.5 -29.5q-73 0 -122.5 46.5t-49.5 127.5z" />
<glyph unicode="&#x448;" horiz-adv-x="1046" d="M96 0v1024h117v-926h252v926h117v-926h252v926h116v-1024h-854z" />
<glyph unicode="&#x449;" horiz-adv-x="1095" d="M96 0v1024h117v-926h252v926h117v-926h252v926h116v-926h101v-354h-117v256h-838z" />
<glyph unicode="&#x44a;" horiz-adv-x="796" d="M47 926v98h301v-395h119q107 0 178.5 -62.5t71.5 -171.5v-159q0 -109 -71.5 -172.5t-178.5 -63.5h-236v926h-184zM348 98h119q56 0 94.5 37.5t38.5 100.5v159q0 62 -38.5 98.5t-94.5 36.5h-119v-432z" />
<glyph unicode="&#x44b;" horiz-adv-x="915" d="M96 0v1024h117v-395h119q107 0 178.5 -62.5t71.5 -171.5v-159q0 -109 -71.5 -172.5t-178.5 -63.5h-236zM213 98h119q57 0 95 37.5t38 100.5v159q0 63 -38 99t-95 36h-119v-432zM702 0v1024h117v-1024h-117z" />
<glyph unicode="&#x44c;" horiz-adv-x="661" d="M96 0v1024h117v-395h119q107 0 178.5 -62.5t71.5 -171.5v-159q0 -109 -71.5 -172.5t-178.5 -63.5h-236zM213 98h119q57 0 95 37.5t38 100.5v159q0 63 -38 99t-95 36h-119v-432z" />
<glyph unicode="&#x44d;" d="M80 225v101h117v-101q0 -63 38 -99t95 -36t94 36t37 99v250h-246v98h246v224q0 68 -36 102.5t-95 34.5t-96 -35t-37 -102v-99h-117v99q0 109 71.5 172t178.5 63t177.5 -63t70.5 -172v-572q0 -109 -70.5 -171t-177.5 -62t-178.5 62t-71.5 171z" />
<glyph unicode="&#x44e;" horiz-adv-x="940" d="M96 0v1024h117v-451h149v224q0 109 70.5 172t177.5 63t178.5 -63t71.5 -172v-572q0 -109 -71.5 -171t-178.5 -62t-177.5 62t-70.5 171v250h-149v-475h-117zM479 225q0 -62 37.5 -98.5t93.5 -36.5q57 0 95 36t38 99v572q0 63 -38 100t-95 37q-56 0 -93.5 -37t-37.5 -100 v-572z" />
<glyph unicode="&#x44f;" horiz-adv-x="661" d="M61 0l177 434q-72 19 -115 75t-43 140v139q0 109 71.5 172.5t178.5 63.5h235v-1024h-116v416h-115l-154 -416h-119zM197 649q0 -63 38 -99t95 -36h119v412h-119q-57 0 -95 -37.5t-38 -100.5v-139z" />
<glyph unicode="&#x450;" d="M80 225v572q0 109 70.5 172t177.5 63t178.5 -63t71.5 -172v-322h-381v-250q0 -62 37.5 -98.5t93.5 -36.5q57 0 95 36t38 99v101h117v-101q0 -109 -71.5 -171t-178.5 -62t-177.5 62t-70.5 171zM168 1366l70 70l251 -209l-69 -72zM197 573h264v224q0 67 -37 102t-96 35 q-57 0 -94 -35t-37 -102v-224z" />
<glyph unicode="&#x451;" d="M80 225v572q0 109 70.5 172t177.5 63t178.5 -63t71.5 -172v-322h-381v-250q0 -62 37.5 -98.5t93.5 -36.5q57 0 95 36t38 99v101h117v-101q0 -109 -71.5 -171t-178.5 -62t-177.5 62t-70.5 171zM133 1210v191h103v-191h-103zM197 573h264v224q0 67 -37 102t-96 35 q-57 0 -94 -35t-37 -102v-224zM424 1210v191h102v-191h-102z" />
<glyph unicode="&#x452;" horiz-adv-x="718" d="M47 1200v98h94v187h117v-187h264v-98h-264v-282q37 55 91.5 84.5t119.5 29.5q72 0 121 -47t49 -129v-1122q0 -94 -61 -148.5t-152 -54.5q-94 0 -155.5 54.5t-61.5 148.5v106h117v-106q0 -48 28.5 -76.5t71.5 -28.5q41 0 68.5 28.5t27.5 76.5v1095q0 48 -28.5 76.5 t-71.5 28.5q-70 0 -117 -46.5t-47 -123.5v-764h-117v1200h-94z" />
<glyph unicode="&#x453;" horiz-adv-x="559" d="M96 0v1024h418v-98h-301v-926h-117zM119 1227l252 211l69 -70l-252 -213z" />
<glyph unicode="&#x454;" d="M80 225v572q0 109 70.5 172t177.5 63t178.5 -63t71.5 -172v-99h-117v99q0 67 -37 102t-96 35q-57 0 -94 -35t-37 -102v-224h280v-98h-280v-250q0 -62 37.5 -98.5t93.5 -36.5q57 0 95 36t38 99v101h117v-101q0 -109 -71.5 -171t-178.5 -62t-177.5 62t-70.5 171z" />
<glyph unicode="&#x455;" horiz-adv-x="645" d="M80 219v107h117v-107q0 -60 35.5 -94.5t89.5 -34.5t90.5 34.5t36.5 94.5v123q0 55 -38 87t-91.5 49t-107.5 37.5t-92 69.5t-38 128v94q0 105 68 165t172 60t172.5 -60t68.5 -165v-109h-117v109q0 59 -35.5 93t-88.5 34t-88 -34t-35 -93v-94q0 -41 20 -68.5t52.5 -43 t71.5 -28t78 -28.5t71.5 -38.5t52.5 -64.5t20 -100v-123q0 -105 -69.5 -166t-173.5 -61t-173 61t-69 166z" />
<glyph unicode="&#x456;" horiz-adv-x="309" d="M96 0v1024h117v-1024h-117zM96 1241v193h117v-193h-117z" />
<glyph unicode="&#x457;" horiz-adv-x="309" d="M-41 1210v191h102v-191h-102zM96 0v1024h117v-1024h-117zM250 1210v191h102v-191h-102z" />
<glyph unicode="&#x458;" horiz-adv-x="309" d="M-94 -356q35 -15 78 -15q48 0 80 30t32 81v1284h117v-1284q0 -97 -62.5 -153t-156.5 -56q-55 0 -88 14v99zM96 1241v193h117v-193h-117z" />
<glyph unicode="&#x459;" horiz-adv-x="1060" d="M47 -8v98q46 0 76.5 45.5t30.5 122.5v766h458v-440h119q107 0 178.5 -62.5t71.5 -171.5v-114q0 -109 -71.5 -172.5t-178.5 -63.5h-235v926h-226v-668q0 -123 -63.5 -194.5t-159.5 -71.5zM612 98h119q57 0 95 37.5t38 100.5v114q0 63 -38 99t-95 36h-119v-387z" />
<glyph unicode="&#x45a;" horiz-adv-x="1044" d="M96 0v1024h117v-440h266v440h117v-440h117q108 0 180 -62.5t72 -171.5v-114q0 -109 -72 -172.5t-180 -63.5h-234v485h-266v-485h-117zM596 98h117q57 0 96 37.5t39 100.5v114q0 62 -38.5 98.5t-96.5 36.5h-117v-387z" />
<glyph unicode="&#x45b;" horiz-adv-x="718" d="M47 1200v98h94v187h117v-187h264v-98h-264v-282q37 55 91.5 84.5t119.5 29.5q72 0 121 -47t49 -129v-856h-117v829q0 48 -28.5 76.5t-71.5 28.5q-70 0 -117 -46.5t-47 -123.5v-764h-117v1200h-94z" />
<glyph unicode="&#x45c;" horiz-adv-x="655" d="M96 0v1024h117v-453h96l183 453h122l-219 -500l226 -524h-123l-189 477h-96v-477h-117zM166 1227l252 211l69 -70l-251 -213z" />
<glyph unicode="&#x45d;" horiz-adv-x="694" d="M96 0v1024h113v-721h4l272 672v49h113v-1024h-113v721h-2l-274 -672v-49h-113zM186 1366l70 70l252 -209l-70 -72z" />
<glyph unicode="&#x45e;" horiz-adv-x="645" d="M33 1024h121l165 -915h5l168 915h120l-264 -1243q-19 -92 -74 -141.5t-143 -49.5h-57v99h57q78 0 100 94l50 217h-35zM129 1337h86q0 -52 30.5 -82t76.5 -30q48 0 79 30t31 82h84q0 -86 -55.5 -137t-138.5 -51q-82 0 -137.5 50.5t-55.5 137.5z" />
<glyph unicode="&#x45f;" horiz-adv-x="692" d="M96 0v1024h117v-926h266v926h117v-1024h-190v-256h-117v256h-193z" />
<glyph unicode="&#x490;" horiz-adv-x="577" d="M96 0v1434h338v204h98v-303h-319v-1335h-117z" />
<glyph unicode="&#x491;" horiz-adv-x="559" d="M96 0v1024h320v205h98v-303h-301v-926h-117z" />
<glyph unicode="&#x4d8;" horiz-adv-x="645" d="M80 219v549h369v444q0 60 -35.5 95.5t-89.5 35.5t-90.5 -35.5t-36.5 -95.5v-188h-117v188q0 105 70 167.5t174 62.5q103 0 172 -62t69 -168v-993q0 -105 -68.5 -166t-172.5 -61t-174 61t-70 166zM197 219q0 -60 36.5 -94.5t90.5 -34.5t89.5 34.5t35.5 94.5v451h-252v-451 z" />
<glyph unicode="&#x4d9;" d="M80 227v346h381v226q0 63 -37 99t-94 36t-95 -36t-38 -99v-90h-117v90q0 109 71.5 171t178.5 62t177.5 -62t70.5 -171v-572q0 -109 -70.5 -172t-177.5 -63t-178.5 63t-71.5 172zM197 227q0 -67 37 -102t96 -35t95 34.5t36 102.5v248h-264v-248z" />
<glyph unicode="&#x2000;" horiz-adv-x="923" />
<glyph unicode="&#x2001;" horiz-adv-x="1847" />
<glyph unicode="&#x2002;" horiz-adv-x="923" />
<glyph unicode="&#x2003;" horiz-adv-x="1847" />
<glyph unicode="&#x2004;" horiz-adv-x="615" />
<glyph unicode="&#x2005;" horiz-adv-x="461" />
<glyph unicode="&#x2006;" horiz-adv-x="307" />
<glyph unicode="&#x2007;" horiz-adv-x="307" />
<glyph unicode="&#x2008;" horiz-adv-x="230" />
<glyph unicode="&#x2009;" horiz-adv-x="369" />
<glyph unicode="&#x200a;" horiz-adv-x="102" />
<glyph unicode="&#x2010;" horiz-adv-x="442" d="M63 514v96h318v-96h-318z" />
<glyph unicode="&#x2011;" horiz-adv-x="442" d="M63 514v96h318v-96h-318z" />
<glyph unicode="&#x2012;" horiz-adv-x="442" d="M63 514v96h318v-96h-318z" />
<glyph unicode="&#x2013;" horiz-adv-x="692" d="M63 514v96h566v-96h-566z" />
<glyph unicode="&#x2014;" horiz-adv-x="1073" d="M63 514v96h947v-96h-947z" />
<glyph unicode="&#x2018;" horiz-adv-x="299" d="M92 1044v191q0 52 18.5 114.5t37.5 98.5l18 37h96q-6 -15 -15.5 -40.5t-25.5 -91.5t-16 -118v-191h-113z" />
<glyph unicode="&#x2019;" horiz-adv-x="299" d="M35 1044q6 15 15.5 40t25.5 91t16 117v193h113v-193q0 -51 -18 -113t-36 -99l-18 -36h-98z" />
<glyph unicode="&#x201a;" horiz-adv-x="299" d="M35 -250q6 15 15.5 40.5t25.5 91.5t16 118v190h113v-190q0 -52 -18 -114.5t-36 -99.5l-18 -36h-98z" />
<glyph unicode="&#x201c;" horiz-adv-x="507" d="M92 1044v191q0 52 18.5 114.5t37.5 98.5l18 37h96q-6 -15 -15.5 -40.5t-25.5 -91.5t-16 -118v-191h-113zM315 1044v191q0 52 18.5 114.5t36.5 98.5l19 37h98q-7 -15 -16.5 -40.5t-26 -91.5t-16.5 -118v-191h-113z" />
<glyph unicode="&#x201d;" horiz-adv-x="507" d="M35 1044q6 15 15.5 40t25.5 91t16 117v193h113v-193q0 -51 -18 -113t-36 -99l-18 -36h-98zM258 1044q6 15 15.5 40t25.5 91t16 117v193h113v-193q0 -51 -18 -113t-36 -99l-18 -36h-98z" />
<glyph unicode="&#x201e;" horiz-adv-x="507" d="M35 -250q6 15 15.5 40.5t25.5 91.5t16 118v190h113v-190q0 -52 -18 -114.5t-36 -99.5l-18 -36h-98zM258 -250q6 15 15.5 40.5t25.5 91.5t16 118v190h113v-190q0 -52 -18 -114.5t-36 -99.5l-18 -36h-98z" />
<glyph unicode="&#x2026;" horiz-adv-x="784" d="M92 0v190h113v-190h-113zM336 0v190h113v-190h-113zM578 0v190h112v-190h-112z" />
<glyph unicode="&#x202f;" horiz-adv-x="369" />
<glyph unicode="&#x2039;" horiz-adv-x="378" d="M63 512l144 358h123l-148 -358l148 -358h-123z" />
<glyph unicode="&#x203a;" horiz-adv-x="378" d="M49 154l148 358l-148 358h123l143 -358l-143 -358h-123z" />
<glyph unicode="&#x205f;" horiz-adv-x="461" />
<glyph unicode="&#x20ac;" horiz-adv-x="698" d="M49 553v96h84v152h-84v96h84v315q0 106 69.5 168t172.5 62q105 0 174 -62t69 -168v-188h-116v188q0 60 -36.5 95.5t-90.5 35.5q-53 0 -89 -35.5t-36 -95.5v-315h368v-96h-368v-152h368v-96h-368v-334q0 -59 36 -94t89 -35q54 0 90.5 34.5t36.5 94.5v191h116v-191 q0 -105 -69 -166t-174 -61q-104 0 -173 61t-69 166v334h-84z" />
<glyph unicode="&#x2122;" horiz-adv-x="589" d="M39 1397v57h260v-57h-94v-475h-72v475h-94zM346 922v532h105l96 -442h2l94 442h105v-532h-66v448h-2l-92 -448h-80l-92 448h-2v-448h-68z" />
<glyph unicode="&#x25fc;" horiz-adv-x="1024" d="M0 0v1024h1024v-1024h-1024z" />
</font>
</defs>
</svg>
