<?xml version="1.0" encoding="iso-8859-1"?>
<!-- Generator: Adobe Illustrator 17.1.0, SVG Export Plug-In . SVG Version: 6.00 Build 0)  -->
<!DOCTYPE svg PUBLIC "-//W3C//DTD SVG 1.1//EN" "http://www.w3.org/Graphics/SVG/1.1/DTD/svg11.dtd">
<svg version="1.1" id="Layer_1" xmlns="http://www.w3.org/2000/svg" xmlns:xlink="http://www.w3.org/1999/xlink" x="0px" y="0px"
	 viewBox="0 0 25.591 25.59" style="enable-background:new 0 0 25.591 25.59;" xml:space="preserve">
<path fill="#02bcc9" d="M24.726,24.726c-1.153,1.153-3.023,1.153-4.176,0l-7.754-7.754l-7.754,7.754c-1.154,1.154-3.024,1.154-4.176,0
	C0.289,24.148,0,23.393,0,22.638c0-0.756,0.288-1.511,0.865-2.088l7.755-7.755L0.864,5.04C0.288,4.464,0,3.709,0,2.952
	c0-0.755,0.289-1.51,0.865-2.087c1.153-1.154,3.023-1.154,4.176,0l7.754,7.754l7.754-7.754c1.153-1.153,3.023-1.153,4.177,0
	c1.153,1.153,1.153,3.022,0,4.176l-7.755,7.755l7.755,7.755C25.879,21.704,25.878,23.572,24.726,24.726z"/>
</svg>
